# xmcd
# 
# Track frame offsets:
#     150
#     17692
#     33635
#     55377
#     74376
#     90647
#     107515
#     130584
#     143320
#     158534
#     176574
#     195469
#     211703
#     232272
#     251189
# 
# Disc length: 3665
# 
# Revision: 1
# Processed by: cddbd v1.5.2PL0 Copyright (c) Steve Scherf et al.
# Submitted via: BonkEnc v1.0.8
# 
DISCID=c50e4f0f
DTITLE=JORJE E MTEUS - AO VIVO
DYEAR=0
DGENRE=
TTITLE0=O Amor
TTITLE1=Hoje tem festa na cidade (mulher do paraná)
TTITLE2=Noite enluarada
TTITLE3=Volta lá pro seu lugar
TTITLE4=Vem ficar do meu lado
TTITLE5=Mais que uma madrugada
TTITLE6=Country roads/Dixiland Delight
TTITLE7=Segura Peão
TTITLE8=Eu deixo ela mentir
TTITLE9=Luz da minha manhã
TTITLE10=Porto da paixão
TTITLE11=Deusa menina
TTITLE12=Não sei como viver
TTITLE13=Brilho no olhar
TTITLE14=Companheiro
EXTD=
EXTT0=
EXTT1=
EXTT2=
EXTT3=
EXTT4=
EXTT5=
EXTT6=
EXTT7=
EXTT8=
EXTT9=
EXTT10=
EXTT11=
EXTT12=
EXTT13=
EXTT14=
PLAYORDER=
